<?xml version="1.0" encoding="utf-8"?>
<!-- Generator: Adobe Illustrator 27.5.0, SVG Export Plug-In . SVG Version: 6.00 Build 0)  -->
<svg version="1.1" id="Capa_1" xmlns="http://www.w3.org/2000/svg" xmlns:xlink="http://www.w3.org/1999/xlink" x="0px" y="0px"
	 viewBox="0 0 2409 1869" style="enable-background:new 0 0 2409 1869;" xml:space="preserve">
<g>
	<path style="fill:#AAC0D8;" d="M2250.89,1354.217c-18.674-25.908-37.409-52.138-50.037-81.473
		c-37.228-86.472-17.774-130.664-60.542-214.537c-14.327-28.095-35.999-52.36-61.844-70.446
		c25.845-18.081,47.517-42.349,61.844-70.444c20.157-39.531,24.378-71.996,27.105-104.328c0.513-6.081,0.975-12.159,1.479-18.277
		c0.388-4.717,0.805-9.46,1.289-14.247c0.391-3.879,0.832-7.788,1.338-11.738c0.07-0.546,0.143-1.093,0.216-1.641
		c2.934-22.081,8.11-45.489,19.6-72.18c6.314-14.667,14.155-28.557,22.751-42.02c8.596-13.462,17.948-26.495,27.286-39.451
		c-59.345-11.598-124.38-10.096-175.919,21.361c-0.154,0.094-0.311,0.182-0.467,0.271c-0.365,0.224-0.745,0.415-1.108,0.642
		c-96.685,60.469-98.45,146.482-174.137,231.782c-12.985,14.633-47.118,32.01-67.091,52.22
		c-12.613-5.412-27.546-11.466-45.336-18.347c-43.886-16.975-87.134-37.417-130.167-59.928c-5.379-2.814-10.755-5.659-16.128-8.535
		c-10.746-5.751-21.483-11.621-32.215-17.587c-32.197-17.898-64.362-36.665-96.674-55.709
		c-66.013-38.907-132.643-78.957-201.396-115.147c0.351-2.064,0.721-4.159,1.119-6.292c6.036-32.333,17.698-72.011,40.2-101.396
		c-51.628-40.596-221.654-98.007-360.89-98.007c-92.741,0-182.964,27.235-250.001,54.47
		c-66.331,26.948-109.892,53.852-110.804,54.418c-0.946,0.288-1.892,0.581-2.838,0.875c-1.19,0.37-2.379,0.761-3.568,1.14
		c-3.112,0.991-6.222,2.009-9.33,3.063c-1.26,0.428-2.52,0.862-3.78,1.3c-3.092,1.074-6.181,2.18-9.279,3.318
		c-0.181,0.066-0.361,0.133-0.542,0.199c-0.927,0.342-1.854,0.676-2.78,1.023c-13.253,4.962-26.455,10.465-39.568,16.433
		c-0.187,0.085-0.373,0.171-0.56,0.256c-90.44,41.256-172.601,100.961-245.548,168.078c-29.207,26.873-57.72,54.656-83.316,85.038
		c-12.809,15.204-24.879,31.053-35.772,47.691c-9.77,14.924-21.679,31.586-25.172,49.269c-0.027,0.137-0.038,0.259-0.064,0.394
		c-0.369,1.962-0.582,3.795-0.582,5.449c0.001,1.436,0.144,3.025,0.368,4.698c1.394,11.886,7.871,29.022,19.319,49.667
		c0.459,0.828,0.907,1.647,1.383,2.487c1.3,2.296,2.666,4.632,4.087,7.008c0.61,1.021,1.24,2.053,1.873,3.088
		c1.455,2.38,2.933,4.772,4.505,7.224c0.616,0.961,1.278,1.948,1.912,2.92c5.214,7.99,11.035,16.319,17.465,24.942
		c1.175,1.577,2.331,3.143,3.547,4.738c1.708,2.24,3.483,4.504,5.271,6.777c1.436,1.826,2.891,3.658,4.378,5.504
		c1.771,2.198,3.564,4.4,5.407,6.625c1.691,2.04,3.439,4.098,5.192,6.159c1.793,2.109,3.562,4.206,5.419,6.335
		c2.412,2.766,4.928,5.56,7.449,8.355c2.332,2.585,4.704,5.176,7.128,7.784c2.768,2.978,5.555,5.96,8.444,8.963
		c1.764,1.833,3.595,3.675,5.404,5.517c2.561,2.607,5.146,5.217,7.797,7.838c1.909,1.886,3.846,3.773,5.802,5.665
		c2.775,2.685,5.604,5.372,8.473,8.066c1.897,1.78,3.78,3.557,5.718,5.341c3.447,3.173,6.987,6.347,10.565,9.524
		c1.455,1.292,2.863,2.583,4.34,3.875c5.049,4.418,10.225,8.834,15.524,13.243c1.436,1.194,2.933,2.382,4.387,3.575
		c4.015,3.295,8.076,6.583,12.231,9.863c1.993,1.573,4.026,3.138,6.051,4.707c3.806,2.948,7.662,5.887,11.581,8.817
		c2.127,1.59,4.259,3.176,6.419,4.76c4.188,3.07,8.457,6.121,12.77,9.164c1.905,1.343,3.778,2.692,5.708,4.03
		c12.539,8.691,25.594,17.241,39.165,25.603c2.04,1.256,4.131,2.492,6.194,3.74c4.84,2.927,9.727,5.833,14.695,8.706
		c2.449,1.417,4.922,2.822,7.402,4.225c4.85,2.743,9.764,5.453,14.733,8.14c2.457,1.329,4.9,2.662,7.386,3.976
		c5.774,3.051,11.644,6.05,17.575,9.019c1.683,0.842,3.324,1.706,5.02,2.541c7.658,3.771,15.444,7.466,23.359,11.082
		c1.82,0.832,3.694,1.626,5.527,2.449c6.123,2.747,12.302,5.456,18.576,8.102c2.795,1.179,5.63,2.326,8.454,3.484
		c5.524,2.264,11.1,4.488,16.739,6.668c3.018,1.167,6.042,2.326,9.093,3.468c5.888,2.203,11.854,4.343,17.865,6.449
		c2.737,0.96,5.443,1.941,8.204,2.879c8.762,2.976,17.617,5.873,26.634,8.629c27.542,8.419,55.308,14.848,83.219,19.556
		c19.326,3.26,38.721,5.714,58.165,7.355c7.085,0.598,14.176,1.082,21.272,1.477c20.105,1.12,40.25,1.45,60.41,1.039
		c6.818-0.139,13.638-0.361,20.459-0.664c36.825-1.634,73.661-5.665,110.356-11.555c2.882,5.688,5.857,11.291,9.003,16.736
		c1.344,2.325,2.716,4.623,4.122,6.891c1.983,3.2,4.061,6.315,6.187,9.385c1.742,2.515,3.54,4.979,5.393,7.393
		c8.703,11.344,18.662,21.54,30.596,29.928c16.98,11.935,36.602,19.034,57.091,22.287c0.752,0.119,1.502,0.242,2.255,0.351
		c4.768,0.689,9.577,1.178,14.41,1.466c2.857,0.17,5.721,0.284,8.589,0.321c13.363,0.169,26.791-1.087,39.828-3.525
		c41.717-7.801,80.475-26.517,118.605-45.152c18.071-8.83,36.495-17.945,50.652-32.23c4.218-4.256,7.994-9.087,11.123-14.279
		c0.448-0.744,0.875-1.497,1.295-2.256c1.57-2.833,2.964-5.752,4.099-8.751c0.445-1.175,0.854-2.362,1.224-3.557
		c0.466-1.504,0.848-3.025,1.188-4.553c0.429-1.925,0.761-3.864,0.974-5.813c0.155-1.42,0.268-2.843,0.301-4.27
		c0.086-3.705-0.252-7.422-1.073-11.102c-1.183-0.223-2.342-0.523-3.523-0.756c-6.67-1.309-13.31-2.71-19.896-4.277
		c-7.644-1.834-15.234-3.834-22.779-5.972c-19.06-5.402-37.801-11.781-56.303-18.891
		c190.957-68.481,365.812-161.596,498.202-207.697c8.994-3.131,17.791-6.046,26.385-8.721c8.594-2.675,16.982-5.111,25.16-7.285
		c4.261-1.132,8.345-2.346,12.264-3.628c10.763,28.501,63.407,52.159,80.29,71.184c18.922,21.325,33.818,42.203,47.03,62.469
		c3.303,5.066,6.5,10.095,9.629,15.082c4.694,7.481,9.232,14.87,13.74,22.159c1.503,2.429,3.002,4.848,4.502,7.255
		c4.5,7.221,9.011,14.338,13.654,21.344c4.644,7.005,9.421,13.899,14.456,20.672c3.356,4.515,6.826,8.977,10.447,13.382
		c1.811,2.202,3.659,4.391,5.549,6.565c3.781,4.349,7.732,8.64,11.886,12.872c2.078,2.115,4.207,4.216,6.392,6.301
		c13.111,12.511,28.237,24.471,46.365,35.81c29.128,18.218,62.681,26.694,97.133,28.538c15.312,0.82,30.802,0.331,46.16-1.196
		C2228.206,1358.142,2239.651,1356.414,2250.89,1354.217z"/>
	<path style="fill:#8CAFCC;" d="M1823.821,1031.475c2.175-0.901,4.365-1.796,6.415-2.738c1.324-0.607,2.543-1.243,3.815-1.866
		c1.779-0.871,3.578-1.737,5.259-2.634c1.273-0.68,2.455-1.378,3.672-2.071c1.538-0.875,3.088-1.747,4.538-2.641
		c1.18-0.726,2.282-1.463,3.405-2.2c1.353-0.887,2.707-1.775,3.979-2.673c1.066-0.753,2.069-1.51,3.079-2.269
		c1.196-0.899,2.381-1.799,3.5-2.704c0.947-0.767,1.847-1.532,2.739-2.3c1.05-0.905,2.079-1.809,3.056-2.713
		c0.83-0.769,1.626-1.533,2.403-2.3c0.915-0.904,1.798-1.804,2.641-2.701c0.712-0.757,1.404-1.509,2.065-2.261
		c0.79-0.897,1.536-1.787,2.255-2.672c0.596-0.734,1.184-1.462,1.733-2.186c0.67-0.884,1.289-1.756,1.889-2.622
		c0.484-0.698,0.971-1.393,1.411-2.077c0.556-0.867,1.051-1.711,1.538-2.553c0.376-0.648,0.766-1.298,1.101-1.93
		c0.449-0.846,0.827-1.659,1.205-2.472c0.27-0.582,0.567-1.174,0.803-1.738c0.346-0.828,0.612-1.61,0.883-2.394
		c0.171-0.497,0.378-1.013,0.521-1.491c0.251-0.843,0.415-1.624,0.578-2.404c0.075-0.359,0.192-0.748,0.248-1.093
		c0.18-1.096,0.275-2.124,0.275-3.062c-93.292,60.769-486.217,187.667-700.433,139.297
		c-157.972-27.878-288.067-18.585-418.162,74.34c-63.308,36.176-82.609-86.059-109.295-144.025
		c-5.278,18.958-11.758,37.676-19.61,55.979c-23.528,57.183-57.678,109.908-101.078,152.707
		c32.149-47.211,58.039-97.498,76.699-150.086c-33.581,30.176-80.222,41.795-134.784,29.67
		c-110.475-27.619-226.012-70.701-308.627-148.163c-0.021-0.02-0.045-0.038-0.066-0.059c1.208,2.329,2.532,4.743,3.879,7.172
		c0.459,0.828,0.907,1.647,1.383,2.487c1.298,2.293,2.667,4.634,4.087,7.008c0.61,1.021,1.24,2.053,1.873,3.088
		c1.453,2.378,2.935,4.775,4.505,7.224c0.616,0.961,1.278,1.948,1.912,2.92c5.209,7.985,11.041,16.325,17.465,24.942
		c1.175,1.576,2.331,3.143,3.547,4.737c1.706,2.238,3.485,4.507,5.271,6.778c1.436,1.826,2.89,3.657,4.378,5.504
		c1.769,2.196,3.565,4.402,5.407,6.625c1.691,2.04,3.439,4.098,5.192,6.159c1.791,2.107,3.564,4.208,5.419,6.335
		c2.412,2.765,4.928,5.559,7.449,8.355c2.33,2.584,4.705,5.177,7.128,7.784c2.768,2.978,5.555,5.96,8.444,8.963
		c1.762,1.832,3.597,3.676,5.404,5.517c2.561,2.607,5.146,5.216,7.797,7.837c1.907,1.885,3.848,3.774,5.802,5.665
		c2.775,2.685,5.604,5.373,8.473,8.066c1.895,1.779,3.782,3.558,5.718,5.34c3.447,3.173,6.988,6.348,10.565,9.524
		c1.455,1.292,2.863,2.583,4.34,3.875c5.049,4.418,10.225,8.833,15.524,13.243c1.435,1.194,2.934,2.383,4.387,3.576
		c4.016,3.295,8.076,6.583,12.231,9.863c1.992,1.573,4.027,3.138,6.051,4.707c3.806,2.948,7.662,5.887,11.581,8.817
		c2.126,1.589,4.259,3.177,6.419,4.76c4.188,3.07,8.457,6.122,12.77,9.164c1.904,1.343,3.778,2.693,5.708,4.03
		c12.539,8.691,25.594,17.241,39.165,25.603c2.04,1.256,4.132,2.492,6.194,3.74c4.84,2.927,9.727,5.832,14.694,8.706
		c2.449,1.417,4.923,2.822,7.403,4.225c4.85,2.743,9.764,5.453,14.733,8.14c2.456,1.328,4.9,2.662,7.386,3.975
		c5.774,3.052,11.644,6.051,17.575,9.019c1.683,0.842,3.324,1.707,5.02,2.541c7.658,3.771,15.444,7.466,23.36,11.082
		c1.82,0.832,3.694,1.626,5.527,2.449c6.123,2.747,12.302,5.456,18.576,8.102c2.794,1.178,5.63,2.327,8.454,3.484
		c5.525,2.264,11.1,4.489,16.74,6.668c3.018,1.166,6.042,2.326,9.092,3.468c5.888,2.203,11.855,4.343,17.865,6.449
		c2.736,0.959,5.443,1.941,8.204,2.879c8.762,2.976,17.617,5.873,26.634,8.629c27.542,8.419,55.308,14.848,83.219,19.556
		c19.326,3.26,38.721,5.713,58.165,7.355c7.085,0.598,14.176,1.082,21.272,1.477c20.105,1.12,40.25,1.45,60.41,1.039
		c6.818-0.139,13.638-0.361,20.459-0.664c18.413-0.818,36.828-2.234,55.227-4.182c18.4-1.948,36.783-4.428,55.13-7.374
		c-25.418-50.171-42.601-107.906-87.702-140.196c-9.667-6.922-20.757-12.823-26.818-23.05c-0.012-0.02-0.019-0.04-0.031-0.061
		c-0.563-0.954-1.045-1.906-1.464-2.855c-0.093-0.212-0.157-0.422-0.243-0.633c-0.322-0.786-0.611-1.57-0.839-2.351
		c-0.042-0.143-0.069-0.285-0.107-0.428c-0.242-0.888-0.428-1.773-0.555-2.653c-0.001-0.004-0.001-0.007-0.001-0.011
		c-0.188-1.371-0.207-2.728-0.133-4.074c0.035-0.743,0.153-1.474,0.262-2.208c0.084-0.539,0.171-1.076,0.294-1.609
		c0.204-0.921,0.451-1.831,0.764-2.735c0.054-0.156,0.122-0.309,0.181-0.464c7.487-20.362,41.274-35.962,58.357-35.555
		c17.935,0.427,34.876,7.885,51.092,15.558c90.571,42.858,177.426,97.013,270.304,132.701
		c39.406-14.131,78.126-29.311,115.929-44.91c15.121-6.239,30.096-12.546,44.909-18.879c66.658-28.5,130.044-57.543,188.802-83.463
		c26.865-11.851,52.764-23.048,77.568-33.239c18.602-7.644,36.589-14.722,53.904-21.085c5.772-2.121,11.47-4.164,17.091-6.121
		c8.994-3.132,17.791-6.046,26.385-8.722c8.593-2.675,16.982-5.11,25.16-7.284c4.258-1.132,8.341-2.345,12.258-3.627
		c3.768-1.233,7.369-2.533,10.83-3.884C1821.508,1032.485,1822.629,1031.969,1823.821,1031.475z"/>
	<path style="fill:#5F96B5;" d="M1349.944,1294.075c-1.183-0.223-2.342-0.524-3.523-0.756c-6.669-1.313-13.314-2.698-19.896-4.277
		c-7.644-1.834-15.234-3.834-22.779-5.972c-19.06-5.402-37.801-11.782-56.303-18.891c-0.001,0,0,0-0.001,0
		c-92.878-35.688-179.733-89.843-270.304-132.701c-16.216-7.673-33.157-15.132-51.092-15.558
		c-16.203-0.385-47.391,13.637-56.955,32.457c-0.02,0.003-0.042,0.002-0.062,0.005c-0.517,1.017-0.952,2.051-1.34,3.094
		c-0.058,0.156-0.126,0.309-0.181,0.464c-0.317,0.902-0.553,1.817-0.764,2.735c-0.123,0.534-0.21,1.071-0.294,1.609
		c-0.116,0.732-0.221,1.466-0.262,2.208c-0.075,1.346-0.055,2.703,0.133,4.074c0.001,0.003,0.001,0.007,0.001,0.011
		c0.127,0.88,0.313,1.765,0.555,2.653c0.038,0.143,0.066,0.285,0.107,0.428c0.229,0.781,0.518,1.565,0.839,2.351
		c0.086,0.211,0.15,0.422,0.243,0.633c0.419,0.949,0.901,1.901,1.464,2.855c0.011,0.02,0.019,0.04,0.031,0.061
		c6.061,10.227,17.151,16.128,26.818,23.05c45.101,32.289,62.284,90.025,87.702,140.196c0.001,0.001-0.001,0,0,0.001
		c2.882,5.688,5.857,11.291,9.003,16.735c1.344,2.325,2.716,4.623,4.122,6.891c1.983,3.201,4.06,6.315,6.187,9.385
		c1.742,2.514,3.54,4.979,5.393,7.393c8.703,11.343,18.662,21.54,30.596,29.927c14.858,10.443,31.737,17.184,49.452,20.886
		c2.531,0.528,5.079,0.995,7.64,1.402c0.752,0.12,1.502,0.242,2.255,0.351c4.768,0.689,9.577,1.179,14.41,1.467
		c2.857,0.17,5.721,0.284,8.589,0.321c5.344,0.068,10.7-0.092,16.037-0.465c8.005-0.56,15.968-1.597,23.79-3.059
		c11.732-2.194,23.231-5.251,34.548-8.927c3.772-1.225,7.524-2.52,11.258-3.873c24.891-9.026,48.968-20.705,72.799-32.351
		c18.07-8.832,36.495-17.945,50.652-32.231c4.218-4.255,7.994-9.086,11.123-14.278c0.448-0.744,0.875-1.497,1.295-2.255
		c1.57-2.833,2.963-5.752,4.099-8.751c0.445-1.175,0.854-2.362,1.224-3.557c0.466-1.504,0.848-3.025,1.188-4.553
		c0.429-1.925,0.761-3.864,0.974-5.813c0.155-1.42,0.268-2.844,0.301-4.27C1351.103,1301.473,1350.765,1297.756,1349.944,1294.075z"
		/>
	<path style="fill:#5F96B5;" d="M2250.889,1354.217c-18.674-25.908-37.408-52.138-50.036-81.472
		c-37.228-86.473-17.774-130.664-60.542-214.537c-14.327-28.096-36-52.361-61.844-70.447h0
		c25.845-18.081,47.517-42.349,61.844-70.444c20.157-39.531,24.378-71.996,27.105-104.328c0.513-6.081,0.976-12.159,1.479-18.277
		c0.388-4.717,0.805-9.46,1.289-14.248c0.391-3.879,0.832-7.788,1.338-11.737c0.07-0.546,0.143-1.093,0.216-1.641
		c0.366-2.76,0.768-5.541,1.213-8.347c3.113-19.638,8.333-40.479,18.387-63.834c6.314-14.667,14.155-28.557,22.751-42.018
		c8.596-13.462,17.948-26.496,27.286-39.45c0,0,0,0-0.001,0c0.001,0,0.001-0.001,0.001-0.001
		c-59.345-11.599-124.38-10.096-175.92,21.362c0.001-0.001,0.001-0.001,0.002-0.002c-0.154,0.095-0.311,0.183-0.467,0.271
		c-0.371,0.21-0.745,0.415-1.108,0.643c-96.685,60.469-98.45,146.481-174.137,231.781c-12.985,14.634-47.118,32.01-67.09,52.22
		c58.935,25.287,66.173,36.269,66.173,49c0,0.938-0.096,1.965-0.276,3.06c-0.057,0.344-0.173,0.734-0.248,1.093
		c-0.162,0.78-0.326,1.56-0.578,2.404c-0.142,0.477-0.349,0.994-0.521,1.491c-0.271,0.786-0.537,1.565-0.883,2.394
		c-0.236,0.564-0.532,1.156-0.803,1.738c-0.379,0.815-0.755,1.625-1.205,2.472c-0.335,0.632-0.725,1.282-1.101,1.93
		c-0.488,0.843-0.981,1.685-1.538,2.553c-0.44,0.684-0.927,1.379-1.411,2.077c-0.602,0.868-1.218,1.736-1.889,2.622
		c-0.549,0.724-1.137,1.452-1.733,2.186c-0.72,0.887-1.464,1.774-2.255,2.672c-0.662,0.752-1.353,1.504-2.065,2.261
		c-0.845,0.899-1.725,1.797-2.641,2.701c-0.777,0.767-1.573,1.531-2.403,2.3c-0.977,0.906-2.004,1.808-3.056,2.713
		c-0.893,0.769-1.792,1.533-2.739,2.3c-1.12,0.906-2.302,1.804-3.5,2.704c-1.009,0.76-2.013,1.516-3.079,2.269
		c-1.273,0.899-2.624,1.785-3.979,2.673c-1.123,0.736-2.225,1.473-3.405,2.2c-1.451,0.894-2.999,1.765-4.538,2.641
		c-1.217,0.693-2.398,1.391-3.672,2.071c-1.682,0.898-3.478,1.763-5.259,2.634c-1.272,0.622-2.491,1.259-3.815,1.866
		c-2.051,0.941-4.239,1.837-6.415,2.738c-1.192,0.493-2.313,1.01-3.543,1.49c-3.459,1.35-7.057,2.651-10.824,3.882
		c10.763,28.502,63.407,52.159,80.29,71.184c18.922,21.325,33.818,42.203,47.03,62.469c3.303,5.066,6.5,10.095,9.629,15.083
		c4.694,7.481,9.232,14.87,13.74,22.159c1.503,2.43,3.002,4.848,4.502,7.256c4.5,7.221,9.011,14.338,13.655,21.344
		c4.644,7.005,9.421,13.899,14.456,20.672c3.356,4.515,6.826,8.977,10.447,13.382c1.811,2.203,3.659,4.392,5.549,6.566
		c3.781,4.348,7.732,8.64,11.886,12.871c2.078,2.116,4.207,4.216,6.392,6.301c13.111,12.512,28.237,24.472,46.365,35.81
		c29.128,18.218,62.681,26.694,97.133,28.539c15.312,0.82,30.802,0.331,46.16-1.196c11.518-1.145,22.962-2.872,34.201-5.068
		C2250.889,1354.218,2250.889,1354.217,2250.889,1354.217z"/>
	<path style="fill:#8CAFCC;" d="M719.022,827.184c13.382-22.653,16.42-51.376,5.287-75.626
		c-10.521-22.914-33.539-42.814-59.654-43.711c-1.868-0.064-2.773,2.815-0.989,3.655c20.697,9.732,39.836,22.918,48.559,45.151
		c9.313,23.737,5.036,49.775-10.032,70.027c-2.943,3.954,0.32,9.354,4.332,10.647c19.393,6.246,24.015,30.829,22.049,48.591
		c-2.231,20.17-12.81,37.276-28.21,50.063c-3.334,2.768-2.729,8.305,0,11.161c16.192,16.945,24.56,39.423,25.211,62.745
		c0.313,11.205-1.187,22.317-4.596,33.001c-3.628,11.366-10.32,20.786-15.585,31.348c-1.295,2.598,1.512,6.239,4.32,4.32
		c20.67-14.132,28.643-44.952,29.243-68.669c0.619-24.487-7.297-48.238-22.137-67.461c17.2-16.201,27.218-39.727,27.301-63.342
		C744.194,859.012,736.514,837.359,719.022,827.184z"/>
	<path style="fill:#8CAFCC;" d="M827.882,939.509c-0.496-24.103-14.071-45.324-33.553-58.271
		c21.736-14.953,34.871-42.706,31.143-68.95c-4.137-29.128-30.363-59.205-61.624-57.76c-0.884,0.041-1.446,1.4-0.495,1.826
		c23.891,10.715,45.907,28.801,48.001,56.88c2.046,27.428-14.824,49.162-38.367,60.814c-6.721,3.328-4.216,12.827,1.95,14.921
		c22.009,7.476,37.803,28.733,37.534,52.218c-0.252,22.052-14.977,46.038-35.013,55.052c-2.743,1.234-2.21,5.205,0,6.584
		c25.799,16.092,40.505,44.189,33.177,74.521c-7.289,30.169-30.301,52.069-48.617,75.615c-1.459,1.874,0.384,5.125,2.771,3.591
		c29.033-18.662,57.585-48.518,62.397-83.97c4.021-29.629-11.573-60.109-38.131-73.158
		C812.332,987.979,828.451,967.101,827.882,939.509z"/>
	<path style="fill:#8CAFCC;" d="M874.756,920.45c37.608-32.235,34.284-93.453-8.607-120.38
		c26.541-31.519,28.245-88.889-10.159-111.948c-0.791-0.476-1.943,0.527-1.341,1.341c23.541,31.897,27.656,79.036-4.22,107.392
		c-3.143,2.795-2.413,8.793,1.378,10.69c43.579,21.802,46.291,82.133,4.039,107.117c-6.24,3.689-4.341,12.251,1.899,14.528
		c53.97,19.713,57.778,93.272,11.217,123.547c-3.992,2.595-0.495,8.626,3.737,6.394c27.937-14.737,46.037-45.341,42.63-77.182
		C912.563,956.111,896.518,933.715,874.756,920.45z"/>
	<path style="fill:#8CAFCC;" d="M962.34,958.947c19.773-16.323,32.447-42.372,29.003-68.092
		c-3.462-25.856-19.343-45.75-41.351-57.32c15.723-16.952,25.867-39.693,21.924-63.131c-3.462-20.574-22.182-47.306-45.938-44.139
		c-1.762,0.234-2.594,2.371-0.935,3.449c17.29,11.237,31.52,23.638,32.766,45.861c1.217,21.697-11.416,41.131-27.313,54.736
		c-4.904,4.197-1.648,11.432,3.507,13.288c47.865,17.228,52.934,84.433,11.086,110.838c-5.102,3.219-4.009,10.699,1.639,12.538
		c21.72,7.076,36.669,26.464,38.233,49.21c1.675,24.358-10.814,39.409-26.832,55.675c-0.483,0.492,0.016,1.209,0.635,1.094
		c24.848-4.701,41.924-36.476,40.307-60.05C997.477,989.665,982.394,969.655,962.34,958.947z"/>
	<path style="fill:#8CAFCC;" d="M1091.956,945.39c-0.412-14.651-5.823-29.246-15.855-40.038
		c-9.005-9.687-21.494-12.983-32.896-18.337c21.342-10.731,35.288-35.796,32.069-59.741c-3.961-29.461-30.023-47.67-54.947-60.914
		c20.78-19.138,24.069-50.532,6.991-74.782c-0.97-1.377-2.984-0.208-2.257,1.319c11.139,23.38-1.298,55.927-23.822,67.813
		c-4.977,2.627-5.399,11.227,0,13.727c22.167,10.264,50.222,22.866,57.865,48.375c7.494,25.016-11.149,49.788-35.509,54.772
		c-6.927,1.418-6.443,10.154-1.779,13.61c10.969,8.122,24.754,9.794,36.037,17.181c10.691,7.001,16.891,19.138,18.208,31.652
		c2.843,26.988-18.253,50.215-41.992,59.68c-5.747,2.291-7.004,11.185,0,12.982c11.879,3.049,24.184,6.18,34.407,13.262
		c12.683,8.791,17.234,20.761,17.084,35.745c-0.018,1.786,2.59,2.586,3.45,0.935c6.121-11.766,1.241-27.025-6.644-36.921
		c-7.423-9.319-17.679-15.304-28.536-19.93C1076.051,993.622,1092.712,972.198,1091.956,945.39z"/>
	<path style="fill:#8CAFCC;" d="M1159.259,952.733c-7.739-7.439-19.432-10.858-27.23-18.079
		c27.21-12.988,45.296-42.638,40.978-73.349c-4.113-29.264-26.461-51.653-53.935-58.477c17.361-17.101,30.649-41.364,16.071-64.424
		c-17.453-27.603-53.9-25.86-81.764-19.445c-2.061,0.474-1.57,3.619,0.492,3.637c23.511,0.181,54.253-2.482,69.576,19.724
		c15.674,22.714-7.007,46.762-24.239,60.279c-5.032,3.948-0.319,10.883,4.701,11.35c25.476,2.366,49.285,24.036,52.385,49.614
		c3.131,25.826-13.666,51.98-37.819,60.957c-4.312,1.604-6.878,6.327-4.333,10.652c10.734,18.238,35.199,18.873,44.989,38.54
		c9.565,19.218,6.285,40.705-5.523,57.949c-0.752,1.098,0.712,2.443,1.788,1.788c17.6-10.724,23.674-34.767,18.916-54.072
		C1171.864,969.442,1166.657,959.845,1159.259,952.733z"/>
	<path style="fill:#8CAFCC;" d="M1276.401,913.029c-1.066-28.503-19.273-53.43-44.292-65.388
		c15.571-12.684,26.096-31.816,24.023-52.418c-2.334-23.202-22.536-45.494-46.789-43.3c-1.135,0.103-1.289,1.506-0.261,1.926
		c18.986,7.714,31.987,25.484,30.695,46.279c-1.157,18.605-14.901,34.193-30.775,42.558c-6.093,3.21-5.019,13.809,1.986,15.195
		c26.028,5.152,47.25,28.223,48.304,55.147c1.072,27.403-17.758,52.252-43.261,60.896c-4.479,1.517-6.545,8.745-1.452,11.108
		c31.119,14.424,46.848,51.016,30.717,82.426c-1.036,2.017,2.104,3.775,3.009,1.758c12.979-28.912,5.829-66.1-17.626-87.251
		C1257.597,970.676,1277.512,942.712,1276.401,913.029z"/>
	<path style="fill:#8CAFCC;" d="M1328.7,904.455c20.212-14.884,36.494-35.261,36.93-61.667
		c0.438-26.526-18.584-47.989-45.403-48.343c-3.281-0.044-3.147,4.696,0,5.009c25.076,2.497,36.209,30.931,30.168,52.797
		c-6.016,21.775-23.418,36.587-42.214,47.549c-5.738,3.346-4.414,12.076,1.819,13.918c28.465,8.419,54.281,26.353,49.129,59.787
		c-2.27,14.726-10.005,28.896-19.298,40.358c-8.721,10.753-20.75,18.054-29.418,28.437c-1.514,1.813-0.148,5.32,2.543,4.367
		c15.376-5.434,32.086-20.506,42.508-32.851c11.067-13.106,17.682-28.558,18.604-45.831
		C1375.735,936.73,1354.733,915.964,1328.7,904.455z"/>
	<path style="fill:#8CAFCC;" d="M1472.314,898.409c-4.68-30.294-35.057-58.046-66.691-51.431c-2.754,0.577-1.726,4.188,0.608,4.492
		c26.433,3.439,50.088,24.341,50.924,52.182c0.801,26.641-17.778,49.307-41.18,59.737c-7.175,3.196-3.648,12.466,1.932,14.782
		c16.258,6.747,32.784,24.415,36.128,42.003c3.828,20.132-5.891,42.458-20.245,56.335l0.659,0.854
		c19.106-14.493,27.464-35.483,25.28-59.281c-1.796-19.572-9.678-35.287-23.933-46.835
		C1460.366,955.916,1476.924,928.247,1472.314,898.409z"/>
	<path style="fill:#8CAFCC;" d="M1499.067,901.926c-3.578,0.154-3.96,4.764-0.811,5.989c12.855,4.993,28.238,8.009,37.82,18.678
		c9.962,11.094,12.043,27.632,9.083,41.752c-2.867,13.678-9.271,27.607-18.397,38.284c-4.251,4.973-9.183,9.193-14.78,12.584
		c-5.325,3.228-11.147,4.191-16.1,8.101c-2.457,1.942-1.268,5.733,0.926,7.185c13.643,9.023,33.203-5.905,41.99-15.833
		c12.305-13.902,20.38-32.165,22.95-50.51c2.549-18.192-1.328-37.755-14.905-50.945
		C1534.136,904.866,1516.199,901.184,1499.067,901.926z"/>
	<path style="fill:#8CAFCC;" d="M1647.021,923.465c-5.189-4.099-11.452-6.486-17.608-8.857c-2.596-1.003-3.693,2.774-1.762,4.179
		c4.893,3.557,8.403,8.305,12.002,13.124c3.267,4.372,6.412,8.771,8.86,13.671c4.726,9.456,7.13,20.749,5.873,31.298
		c-1.28,10.742-6.83,20.352-14.836,27.494c-3.955,3.53-8.602,6.523-13.486,8.598c-5.758,2.446-12.054,3.249-17.942,5.279
		c-6.342,2.189-7.102,11.791,0,13.65c14.772,3.873,31.397-4.791,42.175-14.56c10.997-9.969,17.796-23.585,19.389-38.288
		c1.492-13.773-2.127-27.785-9.202-39.609C1656.897,933.451,1652.518,927.802,1647.021,923.465z"/>
	<path style="fill:#8CAFCC;" d="M1746.828,940.294c-3.053-4.519-6.648-8.94-10.977-12.305c-3.885-3.018-9.381-4.932-14.11-6.155
		c-2.654-0.685-4.144,2.931-1.845,4.381c6.673,4.204,11.398,12.174,14.258,19.424c3.198,8.108,5.906,16.189,7.58,24.767
		c1.657,8.49,2.775,18.832-2.116,26.503c-1.834,2.874-4.548,5.383-7.716,6.729c-1.263,0.535-2.721,0.873-4.06,1.177
		c-0.912,0.209-1.928,0.234-2.871,0.493c-0.693,0.292-1.387,0.585-2.081,0.877c1.224-0.472,1.11-0.608-0.342-0.408
		c-7.137,0.134-9.767,9.681-3.627,13.394c5.508,3.331,11.579,4.37,17.756,2.033c5.505-2.085,10.445-5.515,14.207-10.06
		c8.915-10.767,10.195-24.669,7.802-38.034C1756.739,962.232,1753.069,949.538,1746.828,940.294z"/>
	<path style="fill:#8CAFCC;" d="M1791.688,938.102c3.885,2.289,6.42,4.964,8.482,8.739c1.089,1.995,2.344,3.875,3.272,5.958
		l0.059,0.113l0.123,0.429l0.469,1.432c0.366,1.213,0.625,2.441,0.87,3.684c0.1,0.511,0.203,1.019,0.3,1.529l0.075,0.331
		l-0.027,0.163c-0.021,1.189,0.133,2.38,0.096,3.576c-0.016,0.531-0.058,1.062-0.087,1.592l-0.017,0.407l-0.013,0.052
		c-0.242,1.173-0.45,2.344-0.77,3.498c-0.179,0.64-0.378,1.275-0.594,1.903l-0.344,0.923c-0.426,0.941-0.886,1.87-1.401,2.759
		c-1.503,2.6-2.207,5.297-3.301,8.059c-1.055,2.661,0.522,6.15,2.636,7.729c2.358,1.763,5.555,2.089,8.167,0.574
		c3.338-1.937,6.242-4.242,8.049-7.732c1.559-3.013,2.874-6.257,3.675-9.56c1.58-6.514,1.821-13.832-0.084-20.314
		c-1.688-5.744-5.291-12.373-10.036-16.148c-4.699-3.735-10.188-6.656-15.99-8.254
		C1790.179,928.136,1787.093,935.398,1791.688,938.102z"/>
	<path style="fill:#5F96B5;" d="M627.942,704.415c0.833-0.215,1.667-0.43,2.497-0.642c0.726-0.186,1.458-0.377,2.182-0.561
		c0.642-0.163,1.295-0.335,1.937-0.498c0.57-0.145,1.153-0.3,1.723-0.444c0.516-0.13,1.043-0.271,1.559-0.401
		c0.469-0.118,0.951-0.248,1.419-0.365c0.424-0.107,0.863-0.226,1.286-0.331c0.391-0.098,0.796-0.208,1.186-0.305
		c593.052-147.654,675.677,159.182,1135.585,200.498c-43.886-16.975-87.134-37.418-130.167-59.928
		c-5.379-2.814-10.755-5.659-16.128-8.535c-10.746-5.752-21.483-11.621-32.215-17.587c-32.197-17.899-64.362-36.665-96.674-55.709
		c-66.013-38.907-132.643-78.958-201.396-115.147c0.351-2.064,0.721-4.159,1.119-6.291c6.036-32.333,17.698-72.012,40.2-101.397
		c-51.628-40.596-221.654-98.007-360.89-98.007c-92.741,0-182.964,27.235-250.001,54.47
		c-66.331,26.948-109.892,53.853-110.804,54.418c0.027-0.008,0.054-0.016,0.081-0.024l-2.919,0.899
		c-1.19,0.37-2.379,0.761-3.568,1.14c-3.112,0.992-6.222,2.008-9.33,3.063c-1.26,0.428-2.52,0.862-3.78,1.3
		c-3.091,1.075-6.18,2.184-9.267,3.319c-0.064,0.024-0.129,0.046-0.193,0.069c-0.121,0.044-0.241,0.085-0.361,0.129
		c-0.927,0.341-1.854,0.675-2.78,1.022c-4.969,1.862-9.929,3.812-14.882,5.822c-0.585,0.237-1.169,0.488-1.754,0.728
		c-0.083,0.034-0.165,0.069-0.247,0.103c-0.08,0.033-0.16,0.067-0.241,0.1c-0.083,0.034-0.167,0.07-0.25,0.104
		c-0.079,0.032-0.157,0.066-0.236,0.097c-0.071,0.029-0.142,0.06-0.212,0.088c-0.082,0.033-0.163,0.068-0.244,0.101
		c-0.078,0.032-0.155,0.064-0.233,0.096c-0.077,0.032-0.155,0.065-0.232,0.096c-0.076,0.032-0.153,0.063-0.229,0.095
		c-0.079,0.033-0.159,0.066-0.237,0.099c-0.07,0.029-0.14,0.058-0.21,0.087c-2.102,0.872-4.195,1.793-6.293,2.689
		c-2.132,0.91-4.267,1.796-6.394,2.732c-1.274,0.561-2.549,1.12-3.821,1.69c-0.07,0.031-0.139,0.061-0.208,0.092
		c-0.069,0.031-0.138,0.061-0.208,0.092c-0.077,0.035-0.155,0.069-0.233,0.103c-0.083,0.037-0.166,0.073-0.249,0.11
		c-0.092,0.041-0.184,0.081-0.275,0.122c-0.091,0.041-0.182,0.08-0.273,0.121c-0.094,0.042-0.188,0.082-0.282,0.125
		c-0.101,0.046-0.203,0.089-0.305,0.135c-0.097,0.044-0.195,0.085-0.293,0.13c-0.102,0.046-0.204,0.089-0.305,0.135
		c-0.104,0.047-0.207,0.091-0.311,0.138c-0.303,0.137-0.608,0.265-0.91,0.403c-0.187,0.085-0.373,0.171-0.56,0.256
		c-3.791,1.731-7.57,3.514-11.345,5.321c-0.385,0.185-0.773,0.358-1.157,0.543c-0.675,0.325-1.348,0.657-2.022,0.984
		c-0.217,0.105-0.434,0.217-0.652,0.323c-0.346,0.168-0.69,0.343-1.036,0.512c-0.313,0.152-0.624,0.31-0.936,0.463
		c-0.276,0.135-0.552,0.274-0.829,0.41c-0.287,0.141-0.573,0.284-0.86,0.426c-0.258,0.127-0.516,0.255-0.774,0.383
		c-0.247,0.122-0.494,0.245-0.742,0.367c-0.248,0.123-0.497,0.245-0.745,0.369c-0.196,0.097-0.393,0.194-0.589,0.291
		c-0.457,0.225-0.915,0.45-1.371,0.678c-0.007-0.006-0.014-0.012-0.022-0.019c0.006,0.007,0.011,0.014,0.017,0.021
		c-1.153,0.578-2.313,1.13-3.464,1.715c0.015,0.011,0.03,0.023,0.045,0.035c4.943,3.62,9.708,7.535,14.334,11.689
		c10.734,13.622,20.73,27.561,29.977,41.782c1.26,1.938,2.448,3.903,3.68,5.852c1.252,1.98,2.512,3.956,3.735,5.946
		c1.208,1.964,2.394,3.936,3.573,5.91c1.178,1.972,2.328,3.955,3.478,5.937c1.152,1.986,2.337,3.96,3.46,5.955
		c1.058,1.879,2.052,3.779,3.085,5.666c1.148,2.098,2.312,4.19,3.428,6.297c1.055,1.99,2.076,3.992,3.103,5.991
		c1.022,1.992,2.025,3.989,3.02,5.989c0.992,1.994,2.009,3.98,2.974,5.983c0.952,1.977,1.844,3.972,2.77,5.958
		c1.012,2.172,2.05,4.335,3.03,6.516c0.973,2.164,1.895,4.344,2.836,6.518c0.944,2.181,1.884,4.363,2.795,6.553
		c0.905,2.171,1.798,4.345,2.671,6.526c0.864,2.159,1.693,4.328,2.527,6.496c0.829,2.157,1.694,4.305,2.492,6.469
		c0.787,2.135,1.506,4.287,2.264,6.43c0.755,2.133,1.53,4.261,2.255,6.402c0.721,2.132,1.404,4.272,2.095,6.411
		c0.694,2.144,1.372,4.293,2.036,6.444c0.658,2.131,1.329,4.259,1.958,6.396c28.954,98.462,26.963,204.067-8.591,308.388
		c-1.159,3.467-2.449,6.893-3.672,10.339c-18.661,52.588-44.551,102.875-76.699,150.086
		c43.401-42.799,77.551-95.524,101.078-152.707c7.852-18.303,14.331-37.021,19.61-55.979c23.682-85.054,21.62-175.208-4.87-257.505
		c-0.679-2.108-1.354-4.217-2.064-6.314c-0.722-2.13-1.446-4.258-2.201-6.377c-0.768-2.157-1.589-4.294-2.392-6.44
		c-0.995-2.659-1.953-5.333-3-7.972c-1.255-3.163-2.605-6.288-3.935-9.421c-1.406-3.313-2.844-6.61-4.335-9.889
		c-1.426-3.136-2.863-6.267-4.366-9.37c-1.387-2.866-2.849-5.695-4.302-8.531c-1.383-2.7-2.734-5.415-4.176-8.086
		c-0.527-0.975-1.079-1.936-1.613-2.908c0.443-0.115,0.88-0.225,1.323-0.34C625.987,704.915,626.963,704.666,627.942,704.415z"/>
	<path style="fill:#5F96B5;" d="M532.153,775.901c0.064,0.065,0.121,0.138,0.184,0.203c0.065,0.066,0.121,0.138,0.185,0.203
		c0.063,0.066,0.121,0.137,0.184,0.203c0.064,0.066,0.121,0.137,0.185,0.203c0.063,0.066,0.121,0.137,0.185,0.203
		c0.063,0.066,0.122,0.137,0.185,0.204c0.063,0.066,0.122,0.135,0.184,0.202c0.063,0.066,0.122,0.137,0.185,0.203
		c0.063,0.067,0.122,0.137,0.185,0.203c0.062,0.067,0.123,0.136,0.185,0.203c0.062,0.068,0.122,0.135,0.183,0.203
		c0.062,0.067,0.124,0.135,0.185,0.203c0.061,0.067,0.122,0.135,0.184,0.202c0.125,0.138,0.251,0.275,0.376,0.414
		c0.126,0.14,0.256,0.278,0.381,0.42c0.126,0.141,0.257,0.278,0.382,0.42c0.125,0.142,0.258,0.277,0.381,0.42
		c0.124,0.143,0.258,0.276,0.381,0.419c0.123,0.143,0.258,0.275,0.38,0.419c0.122,0.144,0.261,0.275,0.382,0.42
		c0.121,0.146,0.261,0.274,0.382,0.42c0.084,0.101,0.155,0.21,0.237,0.312c0.08,0.099,0.148,0.207,0.229,0.306
		c0.08,0.098,0.148,0.206,0.228,0.305c0.125,0.155,0.233,0.322,0.357,0.477c0.151,0.19,0.286,0.391,0.436,0.582
		c0.15,0.191,0.288,0.391,0.436,0.583c0.148,0.193,0.29,0.39,0.436,0.583c0.147,0.193,0.291,0.389,0.436,0.583
		c0.145,0.195,0.292,0.387,0.436,0.583c0.144,0.195,0.293,0.386,0.436,0.583c0.142,0.197,0.296,0.385,0.437,0.583
		c0.14,0.198,0.296,0.383,0.436,0.582c0.297,0.427,0.635,0.823,0.925,1.254c0.165,0.245,0.299,0.512,0.461,0.759
		c0.163,0.246,0.301,0.511,0.462,0.76c0.161,0.248,0.303,0.509,0.461,0.758c0.159,0.25,0.305,0.508,0.461,0.758
		c0.156,0.252,0.308,0.506,0.461,0.76c0.163,0.267,0.327,0.533,0.487,0.801c0.356,0.6,0.743,1.179,1.085,1.787
		c0.291,0.516,0.613,1.009,0.894,1.531c0.164,0.306,0.292,0.633,0.453,0.941c0.161,0.308,0.296,0.632,0.454,0.942
		c0.157,0.31,0.298,0.629,0.453,0.941c0.333,0.671,0.658,1.345,0.975,2.025c0.339,0.726,0.722,1.427,1.042,2.163
		c0.225,0.516,0.453,1.026,0.668,1.547c0.152,0.368,0.264,0.756,0.412,1.126c0.316,0.791,0.586,1.605,0.881,2.407
		c0.31,0.843,0.64,1.676,0.926,2.53c0.248,0.742,0.542,1.46,0.771,2.21c0.257,0.836,0.423,1.709,0.656,2.554
		c2.196,7.948,3.462,16.282,3.462,24.928c0,51.677-41.892,93.569-93.569,93.569c-12.633,0-24.665-2.536-35.659-7.074
		c-0.902-0.372-1.774-0.794-2.661-1.193c-1.004-0.452-1.984-0.944-2.969-1.43c-0.795-0.393-1.615-0.741-2.398-1.155
		c-0.59-0.312-1.175-0.629-1.757-0.953c-0.88-0.49-1.714-1.047-2.575-1.564c-0.738-0.443-1.481-0.878-2.205-1.34
		c-0.381-0.243-0.782-0.456-1.16-0.704c-0.452-0.299-0.913-0.581-1.36-0.886c-0.747-0.511-1.44-1.092-2.171-1.623
		c-0.554-0.403-1.1-0.815-1.644-1.23c-0.318-0.242-0.645-0.471-0.96-0.717c-0.315-0.246-0.649-0.469-0.961-0.719
		c-0.311-0.25-0.653-0.464-0.961-0.718c-0.59-0.487-1.124-1.035-1.703-1.535c-0.393-0.34-0.767-0.702-1.153-1.049
		c-0.257-0.23-0.511-0.463-0.765-0.696c-0.254-0.232-0.513-0.459-0.765-0.695c-0.252-0.236-0.516-0.458-0.765-0.696
		c-0.25-0.239-0.519-0.455-0.765-0.696c-0.246-0.241-0.522-0.452-0.766-0.696c-0.364-0.362-0.683-0.768-1.041-1.137
		c-0.2-0.207-0.382-0.431-0.581-0.639c-0.199-0.209-0.385-0.429-0.581-0.64c-0.197-0.21-0.386-0.427-0.581-0.64
		c-0.195-0.212-0.388-0.425-0.581-0.64c-0.193-0.214-0.39-0.424-0.582-0.64c-0.19-0.215-0.391-0.421-0.58-0.638
		c-0.189-0.218-0.395-0.42-0.582-0.64c-0.133-0.156-0.282-0.298-0.413-0.454c-0.101-0.12-0.215-0.227-0.315-0.347
		c-0.111-0.133-0.228-0.26-0.338-0.394c-0.147-0.179-0.27-0.376-0.415-0.555c-0.146-0.18-0.272-0.375-0.416-0.556
		c-0.144-0.181-0.272-0.374-0.415-0.556c-0.143-0.182-0.274-0.373-0.415-0.556c-0.142-0.182-0.275-0.372-0.416-0.556
		s-0.277-0.37-0.416-0.556c-0.139-0.186-0.279-0.37-0.416-0.556c-0.086-0.117-0.174-0.231-0.259-0.347
		c-0.07-0.096-0.143-0.189-0.213-0.285c-0.07-0.096-0.143-0.188-0.212-0.284c-0.069-0.096-0.144-0.188-0.213-0.285
		c-0.069-0.096-0.144-0.188-0.212-0.284c-0.069-0.097-0.145-0.188-0.213-0.285c-0.069-0.097-0.144-0.187-0.213-0.285
		c-0.067-0.097-0.145-0.186-0.212-0.284s-0.146-0.186-0.212-0.284c-0.067-0.098-0.147-0.187-0.213-0.285
		c-0.067-0.099-0.147-0.189-0.214-0.288c-0.098-0.145-0.176-0.304-0.273-0.45c-0.098-0.146-0.177-0.303-0.274-0.449
		c-0.096-0.146-0.177-0.303-0.273-0.45c-0.05-0.078-0.094-0.161-0.145-0.239c12.535,40.996,50.65,70.822,95.75,70.822
		c55.301,0,100.131-44.83,100.131-100.132C582.74,825.586,562.346,793.145,532.153,775.901z"/>
	<path style="fill:#FFE163;" d="M555.526,816.509c-0.233-0.845-0.4-1.718-0.656-2.554c-0.23-0.75-0.523-1.469-0.771-2.21
		c-0.286-0.854-0.616-1.687-0.926-2.53c-0.295-0.803-0.565-1.616-0.881-2.407c-0.148-0.37-0.26-0.758-0.412-1.126
		c-0.216-0.52-0.443-1.031-0.668-1.547c-0.32-0.736-0.703-1.438-1.042-2.163c-0.317-0.68-0.642-1.354-0.975-2.025
		c-0.155-0.311-0.296-0.631-0.453-0.941c-0.158-0.31-0.293-0.634-0.454-0.942c-0.161-0.308-0.289-0.635-0.453-0.941
		c-0.281-0.521-0.603-1.015-0.894-1.531c-0.343-0.608-0.73-1.187-1.085-1.787c-0.16-0.268-0.325-0.534-0.487-0.801
		c-0.154-0.254-0.305-0.508-0.461-0.76c-0.156-0.251-0.302-0.508-0.461-0.758c-0.158-0.249-0.3-0.51-0.461-0.758
		c-0.161-0.249-0.298-0.513-0.462-0.76c-0.163-0.247-0.296-0.514-0.461-0.759c-0.291-0.432-0.628-0.828-0.925-1.254
		c-0.139-0.199-0.296-0.385-0.436-0.582c-0.141-0.198-0.294-0.386-0.437-0.583c-0.142-0.197-0.292-0.388-0.436-0.583
		c-0.144-0.196-0.291-0.389-0.436-0.583c-0.145-0.194-0.289-0.39-0.436-0.583c-0.146-0.194-0.288-0.391-0.436-0.583
		c-0.148-0.192-0.287-0.392-0.436-0.583c-0.149-0.191-0.285-0.392-0.436-0.582c-0.123-0.155-0.232-0.322-0.357-0.477
		c-0.079-0.099-0.148-0.207-0.228-0.305c-0.08-0.098-0.148-0.207-0.229-0.306c-0.083-0.101-0.153-0.211-0.237-0.312
		c-0.121-0.146-0.26-0.275-0.382-0.42c-0.121-0.145-0.259-0.275-0.382-0.42c-0.122-0.144-0.257-0.275-0.38-0.419
		c-0.123-0.143-0.257-0.276-0.381-0.419c-0.124-0.143-0.257-0.278-0.381-0.42c-0.125-0.142-0.256-0.279-0.382-0.42
		c-0.125-0.142-0.255-0.279-0.381-0.42c-0.125-0.139-0.25-0.276-0.376-0.414c-0.062-0.067-0.123-0.135-0.184-0.202
		c-0.062-0.068-0.123-0.136-0.185-0.203c-0.061-0.067-0.122-0.135-0.183-0.203c-0.062-0.067-0.123-0.136-0.185-0.203
		c-0.062-0.067-0.122-0.136-0.185-0.203c-0.062-0.066-0.122-0.136-0.185-0.203c-0.062-0.067-0.121-0.137-0.184-0.202
		c-0.063-0.067-0.122-0.138-0.185-0.204c-0.063-0.066-0.121-0.137-0.185-0.203c-0.063-0.066-0.121-0.137-0.185-0.203
		c-0.063-0.066-0.121-0.137-0.184-0.203c-0.064-0.066-0.121-0.138-0.185-0.203c-0.063-0.066-0.12-0.138-0.184-0.203
		c-0.064-0.065-0.12-0.137-0.184-0.202c-1.531-1.549-3.161-2.993-4.796-4.432c-2.162-1.904-4.409-3.701-6.741-5.401
		c-2.525-1.842-5.137-3.559-7.844-5.144c-2.996-1.755-6.076-3.371-9.273-4.79c-3.64-1.616-7.389-3.014-11.256-4.162
		c-4.781-1.418-9.73-2.43-14.799-3.072c-3.887-0.492-7.821-0.83-11.842-0.83c-3.88,0-7.682,0.31-11.438,0.769
		c-12.499,1.527-24.222,5.502-34.698,11.458c-6.119,3.478-11.774,7.648-16.932,12.366c-3.214,2.94-6.291,6.026-9.069,9.386
		c-2.102,2.541-4.046,5.212-5.873,7.968c-1.56,2.353-3.035,4.766-4.382,7.261c-1.179,2.187-2.236,4.445-3.242,6.731
		c-0.894,2.031-1.668,4.12-2.418,6.223c-0.69,1.935-1.336,3.884-1.9,5.875c-0.529,1.865-1.038,3.738-1.452,5.648
		c-1.389,6.413-2.164,13.055-2.164,19.884c0,18.622,5.504,35.93,14.882,50.508c0.044,0.069,0.083,0.142,0.127,0.21
		c0.051,0.078,0.095,0.161,0.145,0.239c0.096,0.147,0.177,0.304,0.273,0.45c0.097,0.146,0.176,0.304,0.274,0.449
		c0.097,0.146,0.175,0.305,0.273,0.45c0.067,0.099,0.147,0.189,0.214,0.288c0.066,0.098,0.146,0.187,0.213,0.285
		c0.067,0.098,0.145,0.187,0.212,0.284s0.145,0.187,0.212,0.284c0.069,0.098,0.145,0.188,0.213,0.285
		c0.068,0.097,0.144,0.188,0.213,0.285c0.069,0.096,0.143,0.188,0.212,0.284c0.069,0.097,0.144,0.189,0.213,0.285
		c0.069,0.096,0.142,0.188,0.212,0.284c0.07,0.096,0.143,0.189,0.213,0.285c0.085,0.117,0.174,0.231,0.259,0.347
		c0.138,0.186,0.277,0.37,0.416,0.556c0.139,0.185,0.275,0.372,0.416,0.556s0.274,0.373,0.416,0.556
		c0.141,0.183,0.272,0.374,0.415,0.556c0.143,0.182,0.271,0.375,0.415,0.556c0.144,0.181,0.271,0.376,0.416,0.556
		c0.146,0.179,0.268,0.377,0.415,0.555c0.11,0.134,0.227,0.261,0.338,0.394c0.1,0.12,0.214,0.227,0.315,0.347
		c0.132,0.156,0.28,0.298,0.413,0.454c0.186,0.219,0.392,0.421,0.582,0.64c0.189,0.217,0.39,0.423,0.58,0.638
		c0.191,0.216,0.389,0.426,0.582,0.64c0.193,0.214,0.386,0.427,0.581,0.64c0.195,0.213,0.385,0.429,0.581,0.64
		c0.197,0.211,0.382,0.431,0.581,0.64c0.199,0.208,0.381,0.432,0.581,0.639c0.358,0.369,0.677,0.775,1.041,1.137
		c0.244,0.244,0.519,0.455,0.766,0.696c0.246,0.241,0.516,0.458,0.765,0.696c0.249,0.238,0.513,0.46,0.765,0.696
		c0.252,0.235,0.51,0.462,0.765,0.695c0.254,0.233,0.508,0.466,0.765,0.696c0.387,0.347,0.76,0.709,1.153,1.049
		c0.578,0.5,1.112,1.049,1.703,1.535c0.309,0.254,0.65,0.468,0.961,0.718c0.312,0.25,0.646,0.472,0.961,0.719
		c0.315,0.246,0.642,0.475,0.96,0.717c0.544,0.415,1.091,0.827,1.644,1.23c0.731,0.531,1.424,1.113,2.171,1.623
		c0.447,0.305,0.908,0.587,1.36,0.886c0.377,0.248,0.778,0.461,1.16,0.704c0.724,0.463,1.467,0.897,2.205,1.34
		c0.862,0.517,1.695,1.074,2.575,1.564c0.582,0.324,1.167,0.641,1.757,0.953c0.783,0.414,1.602,0.762,2.398,1.155
		c0.984,0.486,1.965,0.978,2.969,1.43c0.887,0.399,1.759,0.821,2.661,1.193c10.994,4.539,23.026,7.074,35.659,7.074
		c51.677,0,93.569-41.892,93.569-93.569C558.988,832.791,557.721,824.457,555.526,816.509z"/>
	<circle style="fill:#FFDA5B;" cx="465.419" cy="840.336" r="89.621"/>
	<circle style="fill:#FFD452;" cx="465.419" cy="839.235" r="85.673"/>
	
		<ellipse transform="matrix(0.7071 -0.7071 0.7071 0.7071 -456.3318 574.5845)" style="fill:#FECD49;" cx="465.419" cy="838.133" rx="81.725" ry="81.725"/>
	
		<ellipse transform="matrix(0.9853 -0.1706 0.1706 0.9853 -135.9564 91.6562)" style="fill:#FDC641;" cx="465.419" cy="837.032" rx="77.777" ry="77.777"/>
	<circle style="fill:#FCBE38;" cx="465.419" cy="835.931" r="73.828"/>
	<circle style="fill:#FAB72F;" cx="465.419" cy="834.83" r="69.88"/>
	<path style="fill:#F9AF26;" d="M399.487,833.729c0,36.413,29.519,65.932,65.932,65.932s65.932-29.519,65.932-65.932
		c0-11.359-2.875-22.045-7.933-31.375c0.967,2.936,1.62,6.015,1.62,9.274c0,1.036-0.202,2.015-0.305,3.023
		c1.723,5.692,2.67,11.722,2.67,17.977c0,34.233-27.751,61.984-61.984,61.984c-34.233,0-61.984-27.751-61.984-61.984
		c0-34.233,27.751-61.984,61.984-61.984c13.692,0,26.305,4.493,36.563,12.011c3.518,0.818,6.813,2.213,9.73,4.154
		c-11.906-11.747-28.245-19.013-46.293-19.013C429.005,767.797,399.487,797.315,399.487,833.729z"/>
	<path style="fill:#F7A81C;" d="M523.455,831.526c0,32.052-25.984,58.036-58.036,58.036c-32.052,0-58.036-25.983-58.036-58.036
		c0-32.052,25.983-58.036,58.036-58.036c10.931,0,21.119,3.078,29.848,8.331c2.318,0.003,4.549,0.33,6.715,0.833
		c-10.257-7.518-22.87-12.011-36.563-12.011c-34.233,0-61.984,27.751-61.984,61.984c0,34.233,27.751,61.984,61.984,61.984
		c34.233,0,61.984-27.751,61.984-61.984c0-6.255-0.947-12.285-2.67-17.977c-0.299,2.922-0.891,5.755-1.971,8.365
		C523.172,825.801,523.455,828.627,523.455,831.526z"/>
	<path style="fill:#F6A011;" d="M407.383,831.526c0,32.052,25.983,58.036,58.036,58.036c32.052,0,58.036-25.983,58.036-58.036
		c0-2.899-0.283-5.725-0.693-8.51c-0.875,2.112-2.018,4.07-3.332,5.905c0.014,0.505,0.076,0.996,0.076,1.505
		c0,21.495-12.571,40.007-30.734,48.729c-6.791,4.214-14.774,6.688-23.354,6.688c-8.579,0-16.563-2.474-23.354-6.688
		c-18.163-8.722-30.734-27.234-30.734-48.729c0-29.872,24.216-54.088,54.088-54.088c8.9,0,17.275,2.19,24.681,5.998
		c1.673-0.292,3.372-0.517,5.129-0.517c0.013,0,0.025,0.003,0.038,0.003c-8.729-5.253-18.917-8.331-29.848-8.331
		C433.367,773.49,407.383,799.474,407.383,831.526z"/>
	<path style="fill:#F49801;" d="M488.773,879.154c18.163-8.723,30.734-27.234,30.734-48.729c0-0.508-0.062-1-0.076-1.505
		c-1.197,1.672-2.573,3.187-4.082,4.577c-0.741,8.973-3.825,17.273-8.668,24.282C503.147,866.69,496.82,874.161,488.773,879.154z"/>
	<path style="fill:#F49801;" d="M411.331,830.425c0,21.496,12.571,40.007,30.734,48.729c-8.047-4.994-14.374-12.464-17.907-21.374
		c-5.588-8.087-8.879-17.883-8.879-28.456c0-27.691,22.448-50.14,50.14-50.14c7.237,0,14.098,1.564,20.311,4.323
		c1.423-0.481,2.859-0.909,4.369-1.172c-7.405-3.808-15.78-5.998-24.681-5.998C435.547,776.337,411.331,800.553,411.331,830.425z"/>
	<path style="fill:#F39000;" d="M509.63,837.576c-4.286,2.385-9.148,3.861-14.401,3.861c-16.464,0-29.81-13.346-29.81-29.81
		c0-5.253,1.476-10.115,3.861-14.401c3.573-6.42,9.388-11.331,16.45-13.719c-6.213-2.759-13.075-4.323-20.311-4.323
		c-27.692,0-50.14,22.449-50.14,50.14c0,10.573,3.291,20.369,8.879,28.456c3.533,8.91,9.86,16.38,17.907,21.374
		c6.791,4.214,14.774,6.688,23.354,6.688c8.58,0,16.563-2.474,23.354-6.688c8.047-4.994,14.374-12.465,17.907-21.375
		c4.843-7.009,7.926-15.308,8.668-24.282C513.621,835.086,511.695,836.427,509.63,837.576z"/>
	<path style="fill:#1D2342;" d="M509.63,837.576c-4.286,2.385-9.148,3.861-14.401,3.861c-16.464,0-29.81-13.346-29.81-29.81
		c0-5.253,1.476-10.115,3.861-14.401c-1.275-0.11-2.558-0.195-3.861-0.195c-24.525,0-44.405,19.881-44.405,44.406
		c0,5.777,1.137,11.28,3.145,16.343c3.533,8.91,9.86,16.38,17.907,21.374c6.791,4.214,14.774,6.688,23.354,6.688
		c8.58,0,16.563-2.474,23.354-6.688c8.047-4.994,14.374-12.465,17.907-21.375c2.008-5.062,3.144-10.565,3.144-16.342
		C509.824,840.133,509.74,838.851,509.63,837.576z"/>
	<path style="fill:#FFFFFF;" d="M495.267,781.821c-0.013,0-0.025-0.003-0.038-0.003c-1.757,0-3.456,0.225-5.129,0.517
		c-1.51,0.263-2.947,0.691-4.369,1.172c-7.063,2.388-12.877,7.299-16.45,13.719c-2.385,4.286-3.861,9.148-3.861,14.401
		c0,16.464,13.346,29.81,29.81,29.81c5.253,0,10.115-1.476,14.401-3.861c2.065-1.149,3.992-2.49,5.718-4.079
		c1.51-1.389,2.886-2.905,4.082-4.577c1.314-1.835,2.457-3.792,3.332-5.905c1.08-2.611,1.672-5.443,1.971-8.365
		c0.103-1.008,0.305-1.988,0.305-3.023c0-3.259-0.652-6.338-1.62-9.274c-2.107-6.399-6.204-11.882-11.707-15.544
		c-2.917-1.941-6.212-3.336-9.73-4.154C499.816,782.151,497.585,781.824,495.267,781.821z"/>
	<path style="fill:#FFFFFF;" d="M482.807,872.659c7.318,0,13.249-5.931,13.249-13.249c0-7.317-5.932-13.249-13.249-13.249
		c-7.316,0-13.248,5.932-13.248,13.249C469.559,866.728,475.491,872.659,482.807,872.659z"/>
	<path style="fill:#317AA0;" d="M2250.889,1354.217c-18.674-25.908-37.408-52.138-50.036-81.472
		c-37.228-86.473-17.774-130.664-60.542-214.537c-14.327-28.096-36-52.361-61.844-70.447h0
		c25.845-18.081,47.517-42.349,61.844-70.444c20.157-39.531,24.378-71.996,27.105-104.328c0.513-6.081,0.976-12.159,1.479-18.277
		c0.388-4.717,0.805-9.46,1.289-14.248c0.391-3.879,0.832-7.788,1.338-11.737c0.07-0.546,0.143-1.093,0.216-1.641
		c0.366-2.76,0.768-5.541,1.213-8.347c3.113-19.638,8.333-40.479,18.387-63.834c6.314-14.667,14.155-28.557,22.751-42.018
		c8.596-13.462,17.948-26.496,27.286-39.45c0,0,0,0-0.001,0c-53.348,13.019-102.03,70.527-154.125,127.974
		c27.905-11.854,53.809-28.401,76.292-48.74c-11.083,65.435-45.631,126.644-95.923,169.949
		c25.021-5.706,48.938-16.205,70.071-30.761c-14.429,45.122-49.979,82.991-94.1,100.237c19.747,4.499,40.626,3.934,60.102-1.625
		c-30.224,25.01-71.325,36.378-110.107,30.453c62.054,47.665,111.715,111.326,142.848,183.111
		c-31.502-19.962-63.004-39.927-94.506-59.888c51.799,46.857,106.815,99.538,116.642,168.693
		c-28.297-26.387-58.462-50.768-90.196-72.901c31.696,48.804,67.65,115.266,111.374,153.665
		c-79.493,27.273-195.495-112.221-223.572-208.667c-14.305-49.135-13.145-119.884-48.027-157.329
		c24.765-25.586,48.876-94.351,53.638-129.64c12.422-92.03,41.546-148.62,103.669-203.171c0.001-0.001,0.001-0.001,0.002-0.002
		c-0.154,0.095-0.311,0.183-0.467,0.271c-0.371,0.21-0.745,0.415-1.108,0.643c-96.685,60.469-98.45,146.481-174.137,231.781
		c-12.985,14.634-47.118,32.01-67.09,52.22c58.935,25.287,66.173,36.269,66.173,49c0,0.938-0.096,1.965-0.276,3.06
		c-0.057,0.344-0.173,0.734-0.248,1.093c-0.162,0.78-0.326,1.56-0.578,2.404c-0.142,0.477-0.349,0.994-0.521,1.491
		c-0.271,0.786-0.537,1.565-0.883,2.394c-0.236,0.564-0.532,1.156-0.803,1.738c-0.379,0.815-0.755,1.625-1.205,2.472
		c-0.335,0.632-0.725,1.282-1.101,1.93c-0.488,0.843-0.981,1.685-1.538,2.553c-0.44,0.684-0.927,1.379-1.411,2.077
		c-0.602,0.868-1.218,1.736-1.889,2.622c-0.549,0.724-1.137,1.452-1.733,2.186c-0.72,0.887-1.464,1.774-2.255,2.672
		c-0.662,0.752-1.353,1.504-2.065,2.261c-0.845,0.899-1.725,1.797-2.641,2.701c-0.777,0.767-1.573,1.531-2.403,2.3
		c-0.977,0.906-2.004,1.808-3.056,2.713c-0.893,0.769-1.792,1.533-2.739,2.3c-1.12,0.906-2.302,1.804-3.5,2.704
		c-1.009,0.76-2.013,1.516-3.079,2.269c-1.273,0.899-2.624,1.785-3.979,2.673c-1.123,0.736-2.225,1.473-3.405,2.2
		c-1.451,0.894-2.999,1.765-4.538,2.641c-1.217,0.693-2.398,1.391-3.672,2.071c-1.682,0.898-3.478,1.763-5.259,2.634
		c-1.272,0.622-2.491,1.259-3.815,1.866c-2.051,0.941-4.239,1.837-6.415,2.738c-1.192,0.493-2.313,1.01-3.543,1.49
		c-3.459,1.35-7.057,2.651-10.824,3.882c10.763,28.502,63.407,52.159,80.29,71.184c18.922,21.325,33.818,42.203,47.03,62.469
		c3.303,5.066,6.5,10.095,9.629,15.083c4.694,7.481,9.232,14.87,13.74,22.159c1.503,2.43,3.002,4.848,4.502,7.256
		c4.5,7.221,9.011,14.338,13.655,21.344c4.644,7.005,9.421,13.899,14.456,20.672c3.356,4.515,6.826,8.977,10.447,13.382
		c1.811,2.203,3.659,4.392,5.549,6.566c3.781,4.348,7.732,8.64,11.886,12.871c2.078,2.116,4.207,4.216,6.392,6.301
		c13.111,12.512,28.237,24.472,46.365,35.81c29.128,18.218,62.681,26.694,97.133,28.539c15.312,0.82,30.802,0.331,46.16-1.196
		c11.518-1.145,22.962-2.872,34.201-5.068C2250.889,1354.218,2250.889,1354.217,2250.889,1354.217z"/>
	<path style="fill:#317AA0;" d="M2070.097,1160.87c5.861,4.312,11.937,8.323,17.781,12.664c2.702,2.008,5.27,4.653,8.19,6.3
		c3.632,2.053,7.236,3.335,10.73,5.787c1.022,0.717,2.462-0.714,1.738-1.74c-4.12-5.83-6.923-11.37-12.067-16.402
		c-5.192-5.079-10.492-10.159-16.132-14.744c-10.949-8.9-22.438-17.594-34.12-25.505c-11.958-8.097-24.453-15.606-35.283-25.219
		c-5.168-4.587-10.189-9.347-14.975-14.331c-1.515-1.579-3.062-3.532-4.642-5.531c-11.031-18.444-23.386-36.011-38.325-51.871
		c-2.073-2.203-5.2,0.59-3.991,3.078c44.339,91.255,84.359,193.117,163.556,260.204c1.407,1.191,3.425-0.747,2.054-2.053
		c-50.937-48.563-74.241-115.367-105.478-176.927c8.725,7.217,17.435,14.449,26.34,21.45
		C2046.632,1144.806,2058.664,1152.456,2070.097,1160.87z"/>
	<path style="fill:#317AA0;" d="M2081.665,1092.958c0.725,0.488,1.788-0.51,1.241-1.241c-4.7-6.282-7.954-13.596-11.831-20.425
		c-3.962-6.981-8.957-13.176-14.781-18.703c-11.986-11.37-24.176-22.548-37.212-32.716c-22.643-17.661-47.968-32.263-76.592-37.159
		l-0.194,0.701c28.128,8.761,51.5,27.108,71.557,48.214c10.62,11.178,20.4,23.106,30.327,34.89
		C2054.624,1078.915,2068.615,1084.187,2081.665,1092.958z"/>
	<path style="fill:#317AA0;" d="M2028.916,714.767c-29.13,52.191-34.449,111.496-51.267,167.619
		c-5.795,10.084-11.065,20.475-15.578,31.097c-0.287,0.676,0.586,1.597,1.141,0.88c2.01-2.598,4.148-5.035,6.189-7.587
		c-0.416,1.091-0.787,2.196-1.216,3.283c-0.225,0.569,0.727,0.973,0.995,0.42c1.263-2.609,2.415-5.268,3.64-7.895
		c9.694-11.906,19.666-23.49,30.506-34.452c14.43-14.59,30.055-28.68,45.723-41.943c28.795-24.377,64.215-46.065,80.206-81.693
		c0.695-1.547-1.256-3.508-2.565-1.981c-12.742,14.874-28.957,26.621-45.483,36.93c-17.095,10.665-33.339,21.094-48.601,34.371
		c-15.396,13.387-27.868,27.897-39.646,44.516c-0.896,1.263-1.717,2.593-2.596,3.875c17.08-41.95,32.204-84.746,52.689-125.156
		c12.852-25.352,29.541-49.185,52.116-66.815c10.414-8.133,21.663-15.672,33.503-21.573c12.317-6.139,25.724-8.508,38.055-14.49
		c2.778-1.348,1.595-5.064-0.78-5.971c-24.14-9.234-57.601,4.358-77.658,18.404C2063.298,664.106,2043.708,688.262,2028.916,714.767
		z"/>
	<path style="fill:#317AA0;" d="M2067.697,892.096c11.582-4.835,19.712-13.815,29.885-20.92c0.657-0.461,0.523-1.795-0.458-1.693
		c-12.043,1.261-24.166,0.374-35.465,5.245c-11.067,4.773-22.699,9.805-32.537,16.788c-20.353,14.447-41.312,28.02-61.22,43.091
		c-0.907,0.685-0.135,2.151,0.916,1.565c21.301-11.857,42.996-23.05,66.272-30.5
		C2046.288,902.087,2056.844,896.624,2067.697,892.096z"/>
	<path style="fill:#317AA0;" d="M2005.204,948.221c7.496-0.567,15.047-1.377,22.214-3.777c1.198-0.402,2.552-1.679,2.36-3.101
		c-0.675-5.037-10.219-1.877-13.288-1.214c-3.739,0.805-7.42,1.901-11.159,2.722c-7.482,1.644-15.047,2.856-22.665,3.664
		c-1.367,0.145-1.431,2.133,0,2.178C1990.183,948.926,1997.705,948.785,2005.204,948.221z"/>
	<path style="fill:#317AA0;" d="M1169.266,1249.478c24.441,24.499,48.884,48.997,73.326,73.496
		c-53.369-13.891-102.255-44.514-138.042-86.473c23.587,35.178,47.173,70.357,70.76,105.535
		c-40.599-27.175-79.483-56.912-116.342-88.978c22.627,31.646,41.951,65.651,57.556,101.287
		c-39.892-38.064-77.035-79.007-111.044-122.407c34.688,47.486,59.306,102.292,71.767,159.763
		c-27.522-41.83-56.056-82.993-85.565-123.445c-21.407-29.346-78.313-126.547-122.654-119.875c-0.517,1.017-0.952,2.051-1.34,3.094
		c-0.058,0.156-0.126,0.309-0.181,0.464c-0.317,0.902-0.553,1.817-0.764,2.735c-0.123,0.534-0.21,1.071-0.294,1.609
		c-0.116,0.732-0.221,1.466-0.262,2.208c-0.075,1.346-0.055,2.703,0.133,4.074c0.001,0.003,0.001,0.007,0.001,0.011
		c0.127,0.88,0.313,1.765,0.555,2.653c0.038,0.143,0.066,0.285,0.107,0.428c0.229,0.781,0.518,1.565,0.839,2.351
		c0.086,0.211,0.15,0.422,0.243,0.633c0.419,0.949,0.901,1.901,1.464,2.855c0.011,0.02,0.019,0.04,0.031,0.061
		c6.061,10.227,17.151,16.128,26.818,23.05c45.101,32.289,62.284,90.025,87.702,140.196c0.001,0.001-0.001,0,0,0.001
		c2.882,5.688,5.857,11.291,9.003,16.735c1.344,2.325,2.716,4.623,4.122,6.891c1.983,3.201,4.06,6.315,6.187,9.385
		c1.742,2.514,3.54,4.979,5.393,7.393c8.703,11.343,18.662,21.54,30.596,29.927c14.858,10.443,31.737,17.184,49.452,20.886
		c2.531,0.528,5.079,0.995,7.64,1.402c0.752,0.12,1.502,0.242,2.255,0.351c4.768,0.689,9.577,1.179,14.41,1.467
		c2.857,0.17,5.721,0.284,8.589,0.321c5.344,0.068,10.7-0.092,16.037-0.465c8.005-0.56,15.968-1.597,23.79-3.059
		c11.732-2.194,23.231-5.251,34.548-8.927c3.772-1.225,7.524-2.52,11.258-3.873c24.891-9.026,48.968-20.705,72.799-32.351
		c18.07-8.832,36.495-17.945,50.652-32.231c4.218-4.255,7.994-9.086,11.123-14.278c0.448-0.744,0.875-1.497,1.295-2.255
		c1.57-2.833,2.963-5.752,4.099-8.751c0.445-1.175,0.854-2.362,1.224-3.557c0.466-1.504,0.848-3.025,1.188-4.553
		c0.429-1.925,0.761-3.864,0.974-5.813c0.155-1.42,0.268-2.844,0.301-4.27c0.086-3.705-0.252-7.422-1.073-11.102
		c-1.183-0.223-2.342-0.524-3.523-0.756c-6.669-1.313-13.314-2.698-19.896-4.277c-7.644-1.834-15.234-3.834-22.779-5.972
		c-0.02-0.006-0.041-0.01-0.061-0.016C1257.192,1296.365,1204.004,1283.154,1169.266,1249.478z"/>
	<path style="fill:#317AA0;" d="M1007.381,1202.276c-8.514-10.023-16.864-20.826-27.198-29.003
		c-10.753-8.508-22.347-16.056-32.617-25.121l-0.514,0.515c9.651,9.333,17.515,20.473,25.702,31.097
		c7.995,10.379,17.967,19.134,27.026,28.596c8.902,9.299,17.597,18.798,26.075,28.485c8.914,10.187,18.449,19.758,27.639,29.699
		l0.57-0.44c-6.686-11.11-13.347-22.233-21.286-32.494C1024.551,1222.975,1016.087,1212.523,1007.381,1202.276z"/>
	<path style="fill:#317AA0;" d="M942.501,1175.703c-4.464-4.968-8.928-9.937-13.391-14.903c-4.602-5.122-9.976-8.644-15.093-13.204
		c-0.751-0.671-1.958,0.175-1.426,1.098c3.159,5.482,5.299,11.246,9.066,16.371c3.946,5.365,7.892,10.733,11.838,16.101
		c7.549,10.268,15.923,19.56,24.468,29.007c17.391,19.225,34.809,38.424,52.214,57.638l0.57-0.438
		c-15.229-20.893-30.444-41.796-45.688-62.674C957.803,1194.758,950.732,1184.862,942.501,1175.703z"/>
	<path style="fill:#317AA0;" d="M1069.857,1219.082c-8.123-8.476-16.414-16.793-24.868-24.939
		c-8.332-8.031-17.241-15.933-27.676-21.176c-0.91-0.458-2.124,0.515-1.49,1.491c6.131,9.406,14.297,17.466,22.338,25.2
		c8.462,8.14,16.762,16.448,24.894,24.915c7.912,8.24,15.796,16.512,23.669,24.79c4.039,4.247,7.993,8.569,11.988,12.856
		c4.191,4.496,9.154,8.208,13.505,12.605c0.707,0.717,2.014-0.227,1.425-1.098c-3.114-4.614-5.679-9.86-9.01-14.252
		c-3.445-4.546-7.142-8.927-10.771-13.326C1086.17,1236.819,1078.223,1227.812,1069.857,1219.082z"/>
	<path style="fill:#317AA0;" d="M1104.528,1207.054c-4.489-3.056-8.995-6.087-13.517-9.09c-4.152-2.759-8.52-6.818-13.534-7.485
		c-1.826-0.245-2.458,1.983-1.88,3.276c1.922,4.308,7.125,7.315,10.657,10.372c4.102,3.557,8.185,7.135,12.247,10.735
		c8.199,7.266,17.547,13.304,26.319,19.862c18.069,13.508,35.799,27.458,53.221,41.789c1.238,1.018,2.992-0.635,1.796-1.797
		c-16.314-15.872-32.981-31.378-50.016-46.471C1121.632,1220.988,1113.585,1213.218,1104.528,1207.054z"/>
	<path style="fill:#3E789D;" d="M740.944,521.383c35.912-4.999,70.857-7.322,104.935-7.308c13.632,0.006,27.125,0.385,40.486,1.115
		c139.13,7.61,263.961,53.381,381.963,112.597c-1.917-16.991-0.364-35.905,8.117-55.219
		c-96.152-37.801-185.238-58.256-264.782-67.674c-79.544-9.419-149.547-7.801-207.53-1.459
		c-90.651,9.916-151.923,31.38-174.356,40.279c-5.508,2.185-8.65,3.602-9.335,3.915c3.252-0.989,6.505-1.957,9.758-2.874
		C668.152,534.059,705.032,526.382,740.944,521.383z"/>
</g>
</svg>
